<?xml version="1.0" encoding="utf-8"?>
<!-- Generator: Adobe Illustrator 23.0.3, SVG Export Plug-In . SVG Version: 6.00 Build 0)  -->
<svg version="1.1" id="Layer_1" xmlns="http://www.w3.org/2000/svg" xmlns:xlink="http://www.w3.org/1999/xlink" x="0px" y="0px"
	 viewBox="0 0 781 747.3" style="enable-background:new 0 0 781 747.3;" xml:space="preserve">
<style type="text/css">
	.st0{fill:#1F9083;}
	.st1{fill:#056571;}
	.st2{fill:#231F20;}
	.st3{fill:#62BABB;}
	.st4{fill:#274B5B;}
	.st5{fill:#6C6D6D;}
	.st6{fill:#484848;}
	.st7{fill:#202020;}
	.st8{fill:#9F9F9F;}
	.st9{fill:#424242;}
</style>
<polyline class="st0" points="425.8,0 349.8,0 349.8,24.8 425.8,24.8 425.8,0 "/>
<polyline class="st1" points="523.1,723.4 438,723.4 438,396.7 523.1,396.7 523.1,723.4 "/>
<path class="st1" d="M113.9,377.9l-52.4-14.7l82.9-294.7c4.1-14.5,19.1-22.9,33.6-18.8c14.5,4.1,22.9,19.1,18.8,33.6L113.9,377.9"/>
<path class="st2" d="M89.8,458.7c12.6-2.8,24-9.2,32.9-18.3c8.9-9.1,15.3-21,17.7-34.3c0.7-4,1.1-7.9,1.1-11.9
	c0-15.7-5.6-30.5-15.2-42.1c-9.5-11.6-23.2-20-39.1-22.9c-4-0.7-7.9-1.1-11.9-1.1c-15.7,0-30.5,5.6-42.1,15.2
	c-11.6,9.5-20,23.2-22.9,39.1c-0.7,4-1.1,7.9-1.1,11.9c0,18.2,7.5,35.1,19.9,47.2l30.9-31.6c-4.2-4.1-6.6-9.7-6.6-15.7
	c0-1.3,0.1-2.6,0.4-4c1-5.4,3.7-9.7,7.6-13c3.9-3.2,8.8-5,13.9-5c1.3,0,2.6,0.1,4,0.4c5.4,1,9.7,3.7,13,7.6c3.2,3.9,5,8.8,5,13.9
	c0,1.3-0.1,2.6-0.4,4c-0.8,4.5-2.9,8.3-5.9,11.4c-3,3-6.8,5.2-10.9,6.1L89.8,458.7"/>
<path class="st1" d="M662.5,377.9l52.4-14.7L632,68.5C628,54,612.9,45.6,598.5,49.6c-14.5,4.1-22.9,19.1-18.8,33.6L662.5,377.9"/>
<path class="st2" d="M699.1,415.6c-4.1-0.9-8-3.1-10.9-6.1c-3-3-5-6.8-5.9-11.4c-0.2-1.4-0.4-2.7-0.4-4c0-5.1,1.8-10,5-13.9
	c3.2-3.9,7.6-6.6,13-7.6c1.4-0.2,2.7-0.4,4-0.4c5.1,0,10,1.8,13.9,5c3.9,3.2,6.6,7.6,7.6,13c0.2,1.4,0.4,2.7,0.4,4
	c0,5.9-2.5,11.6-6.6,15.7l30.9,31.6c12.4-12.2,19.9-29.1,19.9-47.2c0-3.9-0.4-7.9-1.1-11.9c-2.9-15.9-11.3-29.6-22.9-39.1
	c-11.6-9.6-26.3-15.2-42.1-15.2c-3.9,0-7.9,0.4-11.9,1.1c-15.9,2.9-29.6,11.3-39.1,22.9c-9.6,11.6-15.2,26.3-15.2,42.1
	c0,3.9,0.4,7.9,1.1,11.9c2.4,13.4,8.8,25.3,17.7,34.3c8.9,9.1,20.3,15.5,32.9,18.3L699.1,415.6"/>
<path class="st3" d="M569.8,352.5H205.8c-12.5,0-22.6-10.1-22.6-22.6v-284c0-12.5,10.1-22.6,22.6-22.6h364.1
	c12.5,0,22.6,10.1,22.6,22.6v284C592.4,342.4,582.3,352.5,569.8,352.5"/>
<path class="st0" d="M609.9,166.8h-18.1V42h18.1c26.9,0,48.7,21.8,48.7,48.7V118C658.6,144.9,636.8,166.8,609.9,166.8"/>
<path class="st0" d="M400.5,368.8v-18.1h160v18.1c0,26.9-21.8,48.7-48.7,48.7h-62.6C422.3,417.5,400.5,395.7,400.5,368.8"/>
<path class="st0" d="M164,166.8h18.1V42H164c-26.9,0-48.7,21.8-48.7,48.7V118C115.3,144.9,137.1,166.8,164,166.8"/>
<polyline class="st0" points="574.6,665.9 429.5,665.9 429.5,731.2 574.6,731.2 574.6,665.9 "/>
<polyline class="st1" points="262.4,723.4 347.5,723.4 347.5,396.7 262.4,396.7 262.4,723.4 "/>
<path class="st0" d="M385,368.8v-18.1H225v18.1c0,26.9,21.8,48.7,48.7,48.7h62.6C363.2,417.5,385,395.7,385,368.8"/>
<polyline class="st0" points="212.6,665.9 357.6,665.9 357.6,731.2 212.6,731.2 212.6,665.9 "/>
<path class="st1" d="M522.4,185.2H253.2c-6.7,0-12.1-5.4-12.1-12.1V77c0-6.7,5.4-12.1,12.1-12.1h269.2c6.7,0,12.1,5.4,12.1,12.1
	v96.1C534.6,179.8,529.1,185.2,522.4,185.2"/>
<path class="st4" d="M522.4,185.2V183H253.2c-5.5,0-9.9-4.4-9.9-9.9V77c0-5.5,4.5-9.9,9.9-9.9h269.2c5.5,0,9.9,4.4,9.9,9.9v96.1
	c0,5.5-4.4,9.9-9.9,9.9V185.2v2.2c7.9,0,14.4-6.4,14.4-14.4V77c0-7.9-6.4-14.3-14.4-14.3H253.2c-7.9,0-14.4,6.4-14.4,14.3v96.1
	c0,7.9,6.4,14.4,14.4,14.4h269.2V185.2"/>
<polyline class="st5" points="425.8,0 349.8,0 349.8,23.4 425.8,23.4 425.8,0 "/>
<path class="st6" d="M438,416.2v249.7h85.1V416.2c-3.6,0.9-7.4,1.3-11.2,1.3h-62.6C445.4,417.5,441.6,417.1,438,416.2"/>
<path class="st6" d="M123.1,144.4L71.4,328.2c1.3-0.1,2.7-0.1,4-0.1c3.9,0,7.9,0.4,11.9,1.1c13.8,2.5,26,9.2,35.2,18.5l50.9-181H164
	C146.8,166.8,131.7,157.9,123.1,144.4 M182.1,51.2v84l1.1-3.8V51.7C182.9,51.5,182.5,51.4,182.1,51.2"/>
<path class="st7" d="M75.4,328.1c-1.3,0-2.7,0-4,0.1c-14.2,0.9-27.5,6.3-38.1,15c-11.6,9.5-20,23.2-22.9,39.1
	c-0.7,4-1.1,7.9-1.1,11.9c0,18.2,7.5,35.1,19.9,47.2l30.9-31.6c-4.2-4.1-6.6-9.7-6.6-15.7c0-1.3,0.1-2.6,0.4-4c1-5.4,3.7-9.7,7.6-13
	c3.9-3.2,8.8-5,13.9-5c0,0,0,0,0,0c1.3,0,2.6,0.1,4,0.4c5.4,1,9.7,3.7,13,7.6c3.2,3.9,5,8.8,5,13.9c0,1.3-0.1,2.6-0.4,4
	c-0.8,4.5-2.9,8.3-5.9,11.4c-3,3-6.8,5.2-10.9,6.1l9.6,43.1c12.6-2.8,24-9.2,32.9-18.3c8.9-9.1,15.3-21,17.7-34.3
	c0.7-4,1.1-7.9,1.1-11.9c0-15.7-5.6-30.5-15.2-42.1c-1.2-1.5-2.6-3-3.9-4.4c-9.2-9.3-21.4-16-35.2-18.5
	C83.3,328.5,79.3,328.1,75.4,328.1"/>
<path class="st6" d="M652.6,141.5c-8.3,15-24.3,25.2-42.7,25.2h-6.7L654.7,350c9.4-10.5,22.4-18.1,37.3-20.8c4-0.7,7.9-1.1,11.9-1.1
	c0.4,0,0.8,0,1.1,0L652.6,141.5"/>
<path class="st7" d="M703.9,328.1c-3.9,0-7.9,0.4-11.9,1.1c-14.9,2.7-27.9,10.3-37.3,20.8c-0.6,0.7-1.2,1.4-1.8,2.1
	c-9.6,11.6-15.2,26.3-15.2,42.1c0,3.9,0.4,7.9,1.1,11.9c2.4,13.4,8.8,25.3,17.7,34.3c8.9,9.1,20.3,15.5,32.9,18.3l9.6-43.1
	c-4.1-0.9-8-3.1-10.9-6.1c-3-3-5-6.8-5.9-11.4c-0.2-1.4-0.4-2.7-0.4-4c0-5.1,1.8-10,5-13.9c3.2-3.9,7.6-6.6,13-7.6
	c1.4-0.2,2.7-0.4,4-0.4c0,0,0,0,0,0c5.1,0,10,1.8,13.9,5c3.9,3.2,6.6,7.6,7.6,13c0.2,1.4,0.4,2.7,0.4,4c0,5.9-2.5,11.6-6.6,15.7
	l30.9,31.6c12.4-12.2,19.9-29.1,19.9-47.2c0-3.9-0.4-7.9-1.1-11.9c-2.9-15.9-11.3-29.6-22.9-39.1c-11.3-9.3-25.6-14.9-40.9-15.1
	C704.7,328.1,704.3,328.1,703.9,328.1"/>
<path class="st8" d="M253.2,187.4c-7.9,0-14.4-6.4-14.4-14.4V77c0-7.9,6.4-14.3,14.4-14.3h269.2c7.9,0,14.4,6.4,14.4,14.3v96.1
	c0,7.9-6.4,14.4-14.4,14.4l0,0H253.2 M569.8,23.4h-144h-76h-144c-12.5,0-22.6,10.1-22.6,22.6v5.8v79.7v198.4
	c0,12.5,10.1,22.6,22.6,22.6H225v-1.8h160v1.8h15.5v-1.8h160v1.8h9.3c12.5,0,22.6-10.1,22.6-22.6V166.8h-0.6V42h0.3
	C590.2,31.4,581,23.4,569.8,23.4"/>
<path class="st5" d="M609.9,42h-17.8h-0.3v124.7h0.6h10.8h6.7c18.4,0,34.4-10.2,42.7-25.2c3.8-7,6-15,6-23.5V90.7
	C658.6,63.8,636.8,42,609.9,42"/>
<path class="st5" d="M560.5,350.7h-160v1.8v16.3c0,23,16,42.3,37.5,47.4c3.6,0.9,7.4,1.3,11.2,1.3h62.6c3.9,0,7.6-0.5,11.2-1.3
	c21.5-5.1,37.5-24.4,37.5-47.4v-16.3V350.7"/>
<path class="st5" d="M182.1,42H164c-26.9,0-48.7,21.8-48.7,48.7V118c0,9.7,2.8,18.8,7.8,26.4c8.7,13.4,23.8,22.3,41,22.3h9.3h8.9
	v-31.5v-84V42"/>
<polyline class="st5" points="574.6,665.9 523.1,665.9 438,665.9 429.5,665.9 429.5,731.2 574.6,731.2 574.6,665.9 "/>
<path class="st6" d="M347.5,416.2c-3.6,0.9-7.4,1.3-11.2,1.3h-62.6c-3.9,0-7.6-0.5-11.2-1.3v249.7h85.1V416.2"/>
<path class="st5" d="M385,350.7H225v1.8v16.3c0,23,16,42.3,37.5,47.4c3.6,0.9,7.4,1.3,11.2,1.3h62.6c3.9,0,7.6-0.5,11.2-1.3
	c21.5-5.1,37.5-24.4,37.5-47.4v-16.3V350.7"/>
<polyline class="st5" points="357.6,665.9 347.5,665.9 262.4,665.9 212.6,665.9 212.6,731.2 357.6,731.2 357.6,665.9 "/>
<path class="st6" d="M522.4,67H253.2c-5.5,0-9.9,4.4-9.9,9.9v96.1c0,5.5,4.5,9.9,9.9,9.9h269.2c5.5,0,9.9-4.4,9.9-9.9V77
	C532.3,71.5,527.9,67,522.4,67"/>
<path class="st9" d="M253.2,183c-5.5,0-9.9-4.4-9.9-9.9V77c0-5.5,4.5-9.9,9.9-9.9h269.2c5.5,0,9.9,4.4,9.9,9.9v96.1
	c0,5.5-4.4,9.9-9.9,9.9l0,0H253.2 M522.4,62.6H253.2c-7.9,0-14.4,6.4-14.4,14.3v96.1c0,7.9,6.4,14.4,14.4,14.4h269.2
	c7.9,0,14.4-6.4,14.4-14.4V77C536.8,69,530.3,62.6,522.4,62.6"/>
</svg>
