<?xml version="1.0" encoding="utf-8"?>
<!-- Generator: Adobe Illustrator 23.0.3, SVG Export Plug-In . SVG Version: 6.00 Build 0)  -->
<svg version="1.1" id="Layer_1" xmlns="http://www.w3.org/2000/svg" xmlns:xlink="http://www.w3.org/1999/xlink" x="0px" y="0px"
	 viewBox="0 0 1525 386.8" style="enable-background:new 0 0 1525 386.8;" xml:space="preserve">
<style type="text/css">
	.st0{fill:#D7D7D7;}
	.st1{fill:#C4C4C4;}
	.st2{fill:#DBDADA;}
</style>
<rect x="426.7" y="56.7" class="st0" width="331" height="220.5"/>
<circle class="st0" cx="433.3" cy="167" r="110.3"/>
<circle class="st0" cx="762.9" cy="167" r="110.3"/>
<rect x="543.3" y="175.1" transform="matrix(0.1108 -0.9938 0.9938 0.1108 250.8819 805.9897)" class="st1" width="65.1" height="175.3"/>
<path class="st1" d="M740.9,295.8c0,18.2-14.7,11.2-33,11.2c-18.3,0-33,7-33-11.2s14.7-33,33-33
	C726.2,262.8,740.9,277.6,740.9,295.8z"/>
<circle class="st2" cx="921" cy="201.8" r="47.4"/>
<rect x="968.7" y="258.8" transform="matrix(1 -8.185260e-03 8.185260e-03 1 -2.349 8.6561)" class="st1" width="175.3" height="65.1"/>
<path class="st1" d="M789.5,324.3c0,18.2-14.7,11.2-33,11.2c-18.3,0-33,7-33-11.2s14.7-33,33-33
	C774.8,291.2,789.5,306.1,789.5,324.3z"/>
<rect x="1144.2" y="166.4" transform="matrix(0.3956 -0.9184 0.9184 0.3956 477.8554 1234.3522)" class="st1" width="65.1" height="175.3"/>
<rect x="807.7" y="216.4" transform="matrix(0.9523 -0.3051 0.3051 0.9523 -33.2704 285.0667)" class="st1" width="175.3" height="65.1"/>
<circle class="st1" cx="224.9" cy="232.4" r="86"/>
<path class="st1" d="M518.3,314.8c0,18.2-14.7,11.2-33,11.2c-18.2,0-33,7-33-11.2c0-18.2,14.7-33,33-33
	C503.5,281.8,518.3,296.6,518.3,314.8z"/>
<path class="st1" d="M960.4,318.6c0,18.2-14.7,11.2-33,11.2c-18.2,0-33,7-33-11.2c0-18.2,14.7-33,33-33
	C945.6,285.6,960.4,300.4,960.4,318.6z"/>
<circle class="st1" cx="339.6" cy="194.2" r="124.2"/>
<circle class="st1" cx="1330.7" cy="300.8" r="60.4"/>
<rect x="224.8" y="146.4" class="st1" width="129.1" height="172"/>
<path class="st1" d="M1234.1,253.4l47.7-43.4l75.5,37l-81.7,79.5L1234.1,253.4z"/>
<circle class="st1" cx="1259.4" cy="234.1" r="33.1"/>
</svg>
