<?xml version="1.0" encoding="utf-8"?>
<!-- Generator: Adobe Illustrator 23.0.3, SVG Export Plug-In . SVG Version: 6.00 Build 0)  -->
<svg version="1.1" id="Layer_1" xmlns="http://www.w3.org/2000/svg" xmlns:xlink="http://www.w3.org/1999/xlink" x="0px" y="0px"
	 viewBox="0 0 1396.8 445.3" style="enable-background:new 0 0 1396.8 445.3;" xml:space="preserve">
<style type="text/css">
	.st0{fill:#D7D7D7;}
	.st1{fill:#C4C4C4;}
	.st2{fill:#DBDADA;}
</style>
<rect x="371.9" y="61.8" class="st0" width="389.1" height="259.2"/>
<circle class="st0" cx="379.7" cy="191.4" r="129.6"/>
<circle class="st0" cx="767.2" cy="191.4" r="129.6"/>
<rect x="509" y="200.9" transform="matrix(0.1108 -0.9938 0.9938 0.1108 184.5939 814.2269)" class="st1" width="76.5" height="206.1"/>
<path class="st1" d="M741.3,342.9c0,21.4-17.3,13.2-38.8,13.2s-38.8,8.2-38.8-13.2s17.3-38.8,38.8-38.8S741.3,321.5,741.3,342.9z"/>
<circle class="st2" cx="953" cy="232.4" r="55.7"/>
<rect x="1009" y="299.3" transform="matrix(1 -8.185534e-03 8.185534e-03 1 -2.7262 9.1138)" class="st1" width="206.1" height="76.5"/>
<path class="st1" d="M798.4,376.3c0,21.4-17.3,13.2-38.8,13.2s-38.8,8.2-38.8-13.2s17.3-38.8,38.8-38.8S798.4,354.9,798.4,376.3z"/>
<rect x="1215.4" y="190.8" transform="matrix(0.3956 -0.9184 0.9184 0.3956 487.8462 1328.9448)" class="st1" width="76.5" height="206.1"/>
<rect x="819.9" y="249.6" transform="matrix(0.9523 -0.3051 0.3051 0.9523 -43.8276 295.2842)" class="st1" width="206.1" height="76.5"/>
<path class="st1" d="M479.6,365.2c0,21.4-17.3,13.2-38.8,13.2c-21.4,0-38.8,8.2-38.8-13.2s17.3-38.8,38.8-38.8
	C462.2,326.4,479.6,343.8,479.6,365.2z"/>
<path class="st1" d="M999.3,369.6c0,21.4-17.3,13.2-38.8,13.2c-21.4,0-38.8,8.2-38.8-13.2s17.3-38.8,38.8-38.8
	C981.9,330.9,999.3,348.2,999.3,369.6z"/>
</svg>
