<?xml version="1.0" encoding="utf-8"?>
<!-- Generator: Adobe Illustrator 23.0.3, SVG Export Plug-In . SVG Version: 6.00 Build 0)  -->
<svg version="1.1" id="Layer_1" xmlns="http://www.w3.org/2000/svg" xmlns:xlink="http://www.w3.org/1999/xlink" x="0px" y="0px"
	 viewBox="0 0 1525 386.8" style="enable-background:new 0 0 1525 386.8;" xml:space="preserve">
<style type="text/css">
	.st0{fill:#D7D7D7;}
	.st1{fill:#C4C4C4;}
	.st2{fill:#DBDADA;}
	.st3{fill:#A5A5A6;}
</style>
<rect x="632.8" y="56.7" class="st0" width="331" height="220.5"/>
<circle class="st0" cx="639.4" cy="167" r="110.3"/>
<circle class="st0" cx="969" cy="167" r="110.3"/>
<rect x="749.4" y="175.1" transform="matrix(0.1108 -0.9938 0.9938 0.1108 434.1465 1010.8221)" class="st1" width="65.1" height="175.3"/>
<path class="st1" d="M947,295.8c0,18.2-14.7,11.2-33,11.2c-18.3,0-33,7-33-11.2s14.7-33,33-33C932.3,262.8,947,277.6,947,295.8z"/>
<circle class="st2" cx="1127.1" cy="201.8" r="47.4"/>
<rect x="1174.8" y="258.8" transform="matrix(1 -8.185260e-03 8.185260e-03 1 -2.3421 10.3431)" class="st1" width="175.3" height="65.1"/>
<path class="st1" d="M995.6,324.3c0,18.2-14.7,11.2-33,11.2s-33,7-33-11.2s14.7-33,33-33S995.6,306.1,995.6,324.3z"/>
<rect x="1350.3" y="166.4" transform="matrix(0.3956 -0.9184 0.9184 0.3956 602.4214 1423.6399)" class="st1" width="65.1" height="175.3"/>
<rect x="1013.8" y="216.4" transform="matrix(0.9523 -0.3051 0.3051 0.9523 -23.4432 347.9495)" class="st1" width="175.3" height="65.1"/>
<path class="st1" d="M724.4,314.8c0,18.2-14.7,11.2-33,11.2c-18.2,0-33,7-33-11.2c0-18.2,14.7-33,33-33
	C709.6,281.8,724.4,296.6,724.4,314.8z"/>
<path class="st1" d="M1166.5,318.6c0,18.2-14.7,11.2-33,11.2c-18.2,0-33,7-33-11.2c0-18.2,14.7-33,33-33
	C1151.7,285.6,1166.5,300.4,1166.5,318.6z"/>
<circle class="st1" cx="109.4" cy="241.2" r="89.1"/>
<circle class="st1" cx="228.3" cy="201.6" r="128.7"/>
<circle class="st3" cx="364.8" cy="212.6" r="62.6"/>
<rect x="109.3" y="152" class="st1" width="133.7" height="178.3"/>
<path class="st3" d="M264.7,163.5l49.5-45l78.3,38.3l-84.6,82.4L264.7,163.5z"/>
<circle class="st3" cx="291" cy="143.6" r="34.3"/>
</svg>
