<?xml version="1.0" encoding="utf-8"?>
<!-- Generator: Adobe Illustrator 23.0.3, SVG Export Plug-In . SVG Version: 6.00 Build 0)  -->
<svg version="1.1" id="Layer_1" xmlns="http://www.w3.org/2000/svg" xmlns:xlink="http://www.w3.org/1999/xlink" x="0px" y="0px"
	 viewBox="0 0 456.2 592.2" style="enable-background:new 0 0 456.2 592.2;" xml:space="preserve">
<style type="text/css">
	.st0{fill:#604585;}
	.st1{fill:#FFFFFF;}
	.st2{fill:#906F9F;}
	.st3{fill:#231F20;}
	.st4{fill:#B92F39;}
	.st5{fill:#EF3E4B;}
</style>
<g>
	<g>
		<path class="st0" d="M420.8,592.2H39.2c-14.5,0-26.3-11.8-26.3-26.3V219.5c0-14.5,11.8-26.3,26.3-26.3h381.6
			c14.5,0,26.3,11.8,26.3,26.3v346.4C447.1,580.4,435.4,592.2,420.8,592.2z"/>
	</g>
	<g>
		<circle class="st1" cx="113.5" cy="350.6" r="57.7"/>
		<path class="st2" d="M113.5,413.3c-34.6,0-62.7-28.1-62.7-62.7s28.1-62.7,62.7-62.7s62.7,28.1,62.7,62.7S148,413.3,113.5,413.3z
			 M113.5,298c-29,0-52.6,23.6-52.6,52.6s23.6,52.6,52.6,52.6s52.6-23.6,52.6-52.6S142.5,298,113.5,298z"/>
	</g>
	<g>
		<circle class="st3" cx="113.5" cy="350.6" r="39.8"/>
	</g>
	<g>
		<circle class="st1" cx="132.4" cy="339" r="10.3"/>
	</g>
	<g>
		<circle class="st1" cx="348.4" cy="350.6" r="57.7"/>
		<path class="st2" d="M348.4,413.3c-34.6,0-62.7-28.1-62.7-62.7s28.1-62.7,62.7-62.7s62.7,28.1,62.7,62.7S383,413.3,348.4,413.3z
			 M348.4,298c-29,0-52.6,23.6-52.6,52.6s23.6,52.6,52.6,52.6s52.6-23.6,52.6-52.6S377.4,298,348.4,298z"/>
	</g>
	<g>
		<circle class="st3" cx="348.4" cy="350.6" r="39.8"/>
	</g>
	<g>
		<circle class="st1" cx="367.3" cy="339" r="10.3"/>
	</g>
	<g>
		<polygon class="st3" points="325.2,33.9 309.3,33.9 256.5,192.3 272.3,192.3 		"/>
	</g>
	<g>
		<circle class="st3" cx="319.8" cy="33.2" r="31"/>
	</g>
	<g>
		<polygon class="st3" points="149.8,73.1 165.7,73.1 204.7,192.3 188.9,192.3 		"/>
	</g>
	<g>
		<circle class="st3" cx="155.2" cy="72.4" r="31"/>
	</g>
	<g>
		<g>
			<path class="st4" d="M281.6,442H171.3c0,7,0.4,13.9,1.1,20.6h108.2C281.3,455.9,281.6,449.1,281.6,442z"/>
		</g>
		<g>
			<path class="st5" d="M226.5,547.4c26.8,0,49.1-36.5,54.1-84.8H172.4C177.4,510.9,199.7,547.4,226.5,547.4z"/>
		</g>
	</g>
</g>
</svg>
