<?xml version="1.0" encoding="utf-8"?>
<!-- Generator: Adobe Illustrator 23.0.3, SVG Export Plug-In . SVG Version: 6.00 Build 0)  -->
<svg version="1.1" id="Layer_1" xmlns="http://www.w3.org/2000/svg" xmlns:xlink="http://www.w3.org/1999/xlink" x="0px" y="0px"
	 viewBox="0 0 456.2 592.2" style="enable-background:new 0 0 456.2 592.2;" xml:space="preserve">
<style type="text/css">
	.st0{fill:#62BABB;}
	.st1{fill:#FFFFFF;}
	.st2{fill:#056571;}
	.st3{fill:#231F20;}
	.st4{fill:#9F9F9F;}
	.st5{fill:#484848;}
	.st6{fill:#202020;}
</style>
<g>
	<path class="st0" d="M421.2,592.2H38.9c-14.3,0-25.9-11.6-25.9-25.9v-347c0-14.3,11.6-25.9,25.9-25.9h382.3
		c14.3,0,25.9,11.6,25.9,25.9v347C447.1,580.6,435.5,592.2,421.2,592.2"/>
	<path class="st1" d="M171.1,350.6c0,31.8-25.8,57.7-57.7,57.7c-31.8,0-57.7-25.8-57.7-57.7c0-31.8,25.8-57.7,57.7-57.7
		C145.3,293,171.1,318.8,171.1,350.6"/>
	<path class="st2" d="M171.1,350.6H166c0,14.5-5.9,27.7-15.4,37.2s-22.7,15.4-37.2,15.4s-27.7-5.9-37.2-15.4s-15.4-22.7-15.4-37.2
		s5.9-27.7,15.4-37.2S98.9,298,113.4,298s27.7,5.9,37.2,15.4s15.4,22.7,15.4,37.2H171.1h5.1c0-34.6-28.1-62.7-62.7-62.7
		S50.8,316,50.8,350.6s28.1,62.7,62.7,62.7s62.7-28.1,62.7-62.7H171.1"/>
	<path class="st3" d="M153.2,350.6c0,22-17.8,39.8-39.8,39.8s-39.8-17.8-39.8-39.8s17.8-39.8,39.8-39.8
		C135.4,310.9,153.2,328.7,153.2,350.6"/>
	<path class="st1" d="M142.7,339c0,5.7-4.6,10.3-10.3,10.3s-10.3-4.6-10.3-10.3s4.6-10.3,10.3-10.3C138,328.7,142.7,333.3,142.7,339
		"/>
	<path class="st1" d="M406.1,350.6c0,31.8-25.8,57.7-57.7,57.7s-57.7-25.8-57.7-57.7c0-31.8,25.8-57.7,57.7-57.7
		S406.1,318.8,406.1,350.6"/>
	<path class="st2" d="M406.1,350.6H401c0,14.5-5.9,27.7-15.4,37.2s-22.7,15.4-37.2,15.4s-27.7-5.9-37.2-15.4s-15.4-22.7-15.4-37.2
		s5.9-27.7,15.4-37.2s22.7-15.4,37.2-15.4s27.7,5.9,37.2,15.4s15.4,22.7,15.4,37.2H406.1h5.1c0-34.6-28.1-62.7-62.7-62.7
		s-62.7,28.1-62.7,62.7s28.1,62.7,62.7,62.7s62.7-28.1,62.7-62.7H406.1"/>
	<path class="st3" d="M388.2,350.6c0,22-17.8,39.8-39.8,39.8s-39.8-17.8-39.8-39.8s17.8-39.8,39.8-39.8
		C370.4,310.9,388.2,328.7,388.2,350.6"/>
	<path class="st1" d="M377.6,339c0,5.7-4.6,10.3-10.3,10.3c-5.7,0-10.3-4.6-10.3-10.3s4.6-10.3,10.3-10.3S377.6,333.3,377.6,339"/>
	<polyline class="st3" points="325.2,33.9 309.3,33.9 256.5,192.3 272.3,192.3 325.2,33.9 	"/>
	<path class="st3" d="M350.7,33.2c0,17.1-13.9,31-31,31s-31-13.9-31-31s13.9-31,31-31C336.9,2.2,350.7,16.1,350.7,33.2"/>
	<polyline class="st3" points="149.8,73.1 165.6,73.1 204.7,192.3 188.9,192.3 149.8,73.1 	"/>
	<path class="st3" d="M124.3,72.4c0,17.1,13.9,31,31,31s31-13.9,31-31s-13.9-31-31-31C138.1,41.4,124.3,55.3,124.3,72.4"/>
	<polyline class="st2" points="165.1,488.5 294.9,488.5 294.9,483.5 165.1,483.5 165.1,488.5 	"/>
	<path class="st4" d="M165.1,488.5v-5.1h129.8v5.1H165.1 M113.5,413.3c-34.6,0-62.7-28.1-62.7-62.7s28.1-62.7,62.7-62.7
		s62.7,28.1,62.7,62.7l0,0l0,0C176.2,385.3,148.1,413.3,113.5,413.3 M348.4,413.3c-34.6,0-62.7-28.1-62.7-62.7s28.1-62.7,62.7-62.7
		s62.7,28.1,62.7,62.7l0,0l0,0C411.1,385.3,383,413.3,348.4,413.3 M421.2,193.3H38.9c-14.3,0-25.9,11.6-25.9,25.9v347
		c0,14.3,11.6,25.9,25.9,25.9h382.3c14.3,0,25.9-11.6,25.9-25.9v-347C447.1,204.9,435.5,193.3,421.2,193.3"/>
	<path class="st1" d="M113.5,390.4c-22,0-39.8-17.8-39.8-39.8s17.8-39.8,39.8-39.8s39.8,17.8,39.8,39.8
		C153.2,372.6,135.4,390.4,113.5,390.4 M113.5,298c-14.5,0-27.7,5.9-37.2,15.4s-15.4,22.7-15.4,37.2s5.9,27.7,15.4,37.2
		s22.7,15.4,37.2,15.4s27.7-5.9,37.2-15.4s15.4-22.7,15.4-37.2h5.1l0,0h-5.1c0-14.5-5.9-27.7-15.4-37.2
		C141.1,303.9,128,298,113.5,298"/>
	<path class="st5" d="M176.2,350.6L176.2,350.6L176.2,350.6 M113.5,287.9c-34.6,0-62.7,28.1-62.7,62.7s28.1,62.7,62.7,62.7
		s62.7-28.1,62.7-62.7h-5.1H166c0,14.5-5.9,27.7-15.4,37.2s-22.7,15.4-37.2,15.4s-27.7-5.9-37.2-15.4s-15.4-22.7-15.4-37.2
		s5.9-27.7,15.4-37.2S98.9,298,113.4,298s27.7,5.9,37.2,15.4s15.4,22.7,15.4,37.2h5.1h5.1l0,0C176.2,316,148.1,287.9,113.5,287.9"/>
	<path class="st6" d="M132.4,349.3c-5.7,0-10.3-4.6-10.3-10.3s4.6-10.3,10.3-10.3c5.7,0,10.3,4.6,10.3,10.3S138,349.3,132.4,349.3
		 M113.5,310.9c-22,0-39.8,17.8-39.8,39.8s17.8,39.8,39.8,39.8s39.8-17.8,39.8-39.8C153.2,328.7,135.4,310.9,113.5,310.9"/>
	<path class="st1" d="M132.4,328.7c-5.7,0-10.3,4.6-10.3,10.3s4.6,10.3,10.3,10.3c5.7,0,10.3-4.6,10.3-10.3S138,328.7,132.4,328.7"
		/>
	<path class="st1" d="M348.4,390.4c-22,0-39.8-17.8-39.8-39.8s17.8-39.8,39.8-39.8s39.8,17.8,39.8,39.8
		C388.2,372.6,370.4,390.4,348.4,390.4 M348.4,298c-14.5,0-27.7,5.9-37.2,15.4s-15.4,22.7-15.4,37.2s5.9,27.7,15.4,37.2
		s22.7,15.4,37.2,15.4s27.7-5.9,37.2-15.4s15.4-22.7,15.4-37.2h5.1l0,0H401c0-14.5-5.9-27.7-15.4-37.2S362.9,298,348.4,298"/>
	<path class="st5" d="M411.1,350.6L411.1,350.6L411.1,350.6 M348.4,287.9c-34.6,0-62.7,28.1-62.7,62.7s28.1,62.7,62.7,62.7
		s62.7-28.1,62.7-62.7H406h-5c0,14.5-5.9,27.7-15.4,37.2s-22.7,15.4-37.2,15.4s-27.7-5.9-37.2-15.4s-15.4-22.7-15.4-37.2
		s5.9-27.7,15.4-37.2s22.7-15.4,37.2-15.4s27.7,5.9,37.2,15.4s15.4,22.7,15.4,37.2h5.1h5.1l0,0C411.1,316,383,287.9,348.4,287.9"/>
	<path class="st6" d="M367.3,349.3c-5.7,0-10.3-4.6-10.3-10.3s4.6-10.3,10.3-10.3c5.7,0,10.3,4.6,10.3,10.3S373,349.3,367.3,349.3
		 M348.4,310.9c-22,0-39.8,17.8-39.8,39.8s17.8,39.8,39.8,39.8s39.8-17.8,39.8-39.8C388.2,328.7,370.4,310.9,348.4,310.9"/>
	<path class="st1" d="M367.3,328.7c-5.7,0-10.3,4.6-10.3,10.3s4.6,10.3,10.3,10.3c5.7,0,10.3-4.6,10.3-10.3S373,328.7,367.3,328.7"
		/>
	<path class="st6" d="M301.3,58l-44.8,134.3h15.8l42.9-128.5C310,63,305.3,61,301.3,58"/>
	<path class="st6" d="M319.8,2.2c-17.1,0-31,13.9-31,31c0,10.2,4.9,19.2,12.5,24.8c4,3,8.7,5,13.9,5.8c1.5,0.2,3,0.3,4.6,0.3
		c17.1,0,31-13.9,31-31C350.7,16.1,336.9,2.2,319.8,2.2"/>
	<path class="st6" d="M173.6,97.3c-4,3-8.8,5-14,5.7l29.3,89.3h15.8L173.6,97.3"/>
	<path class="st6" d="M155.2,41.4c-17.1,0-31,13.9-31,31s13.9,31,31,31c1.5,0,3-0.1,4.4-0.3c5.2-0.7,9.9-2.8,14-5.7
		c7.6-5.6,12.6-14.7,12.6-24.9C186.2,55.3,172.3,41.4,155.2,41.4"/>
	<polyline class="st5" points="294.9,483.5 165.1,483.5 165.1,488.5 294.9,488.5 294.9,483.5 	"/>
</g>
</svg>
